<?xml version="1.0" encoding="utf-8"?>
<!-- Generator: Adobe Illustrator 18.1.1, SVG Export Plug-In . SVG Version: 6.00 Build 0)  -->
<svg version="1.1" id="Layer_1" xmlns="http://www.w3.org/2000/svg" xmlns:xlink="http://www.w3.org/1999/xlink" x="0px" y="0px"
	 viewBox="0 0 85 210" enable-background="new 0 0 85 210" xml:space="preserve">
<g>
	<polyline fill="#D1D3D4" points="85,0 51.9,19.7 9.1,19.7 9.1,0 	"/>
	<text transform="matrix(1 0 0 1 15.3679 12.6869)" fill="#414042" font-family="'NanumGothicBold'" font-size="11.1018">창    업</text>
	<polygon fill="#D1D3D4" points="51.9,40 9.1,40 9.1,59.7 51.9,59.7 85,49.9 	"/>
	<polygon fill="#D1D3D4" points="51.9,90.7 9.1,90.7 9.1,110.4 51.9,110.4 85,100.6 	"/>
	<polygon fill="#D1D3D4" points="51.9,141.1 9.1,141.1 9.1,160.8 51.9,160.8 85,151 	"/>
	<text transform="matrix(1 0 0 1 15.3679 53.1073)" fill="#414042" font-family="'NanumGothicBold'" font-size="11.1018">보    육</text>
	<text transform="matrix(1 0 0 1 15.3679 103.8055)" fill="#414042" font-family="'NanumGothicBold'" font-size="11.1018">성    장</text>
	<text transform="matrix(1 0 0 1 15.3679 154.5546)" fill="#414042" font-family="'NanumGothicBold'" font-size="11.1018">자    립</text>
	<polyline fill="#D1D3D4" points="85,210 51.9,190.3 9.1,190.3 9.1,210 	"/>
	<text transform="matrix(1 0 0 1 12.22 203.4301)" fill="#414042" font-family="'NanumGothicBold'" font-size="11.1018">기업공개</text>
	<g>
		<g>
			<g>
				<line fill="none" stroke="#6D6E71" stroke-linecap="round" stroke-miterlimit="10" x1="32.7" y1="20.3" x2="32.7" y2="21.1"/>
				
					<line fill="none" stroke="#6D6E71" stroke-linecap="round" stroke-miterlimit="10" stroke-dasharray="1.4953,1.9938" x1="32.7" y1="23.1" x2="32.7" y2="32.5"/>
				<line fill="none" stroke="#6D6E71" stroke-linecap="round" stroke-miterlimit="10" x1="32.7" y1="33.5" x2="32.7" y2="34.3"/>
				<g>
					<polygon fill="#6D6E71" points="28.7,33.1 32.7,40 36.7,33.1 					"/>
				</g>
			</g>
		</g>
		<circle fill="#FFFFFF" stroke="#6D6E71" stroke-miterlimit="10" cx="32.7" cy="20.3" r="2.8"/>
	</g>
	<g>
		<g>
			<g>
				<line fill="none" stroke="#6D6E71" stroke-linecap="round" stroke-miterlimit="10" x1="32.7" y1="59.6" x2="32.7" y2="60.4"/>
				
					<line fill="none" stroke="#6D6E71" stroke-linecap="round" stroke-miterlimit="10" stroke-dasharray="1.5565,2.0753" x1="32.7" y1="62.5" x2="32.7" y2="83.2"/>
				<line fill="none" stroke="#6D6E71" stroke-linecap="round" stroke-miterlimit="10" x1="32.7" y1="84.2" x2="32.7" y2="85"/>
				<g>
					<polygon fill="#6D6E71" points="28.7,83.8 32.7,90.7 36.7,83.8 					"/>
				</g>
			</g>
		</g>
		<circle fill="#FFFFFF" stroke="#6D6E71" stroke-miterlimit="10" cx="32.7" cy="59.6" r="2.8"/>
	</g>
	<g>
		<g>
			<g>
				<line fill="none" stroke="#6D6E71" stroke-linecap="round" stroke-miterlimit="10" x1="32.7" y1="110" x2="32.7" y2="110.8"/>
				
					<line fill="none" stroke="#6D6E71" stroke-linecap="round" stroke-miterlimit="10" stroke-dasharray="1.5565,2.0753" x1="32.7" y1="112.9" x2="32.7" y2="133.6"/>
				<line fill="none" stroke="#6D6E71" stroke-linecap="round" stroke-miterlimit="10" x1="32.7" y1="134.7" x2="32.7" y2="135.4"/>
				<g>
					<polygon fill="#6D6E71" points="28.7,134.2 32.7,141.1 36.7,134.2 					"/>
				</g>
			</g>
		</g>
		<circle fill="#FFFFFF" stroke="#6D6E71" stroke-miterlimit="10" cx="32.7" cy="110" r="2.8"/>
	</g>
	<g>
		<g>
			<g>
				<line fill="none" stroke="#6D6E71" stroke-linecap="round" stroke-miterlimit="10" x1="32.7" y1="160.7" x2="32.7" y2="161.5"/>
				
					<line fill="none" stroke="#6D6E71" stroke-linecap="round" stroke-miterlimit="10" stroke-dasharray="1.4573,1.943" x1="32.7" y1="163.4" x2="32.7" y2="182.8"/>
				<line fill="none" stroke="#6D6E71" stroke-linecap="round" stroke-miterlimit="10" x1="32.7" y1="183.8" x2="32.7" y2="184.6"/>
				<g>
					<polygon fill="#6D6E71" points="28.7,183.4 32.7,190.3 36.7,183.4 					"/>
				</g>
			</g>
		</g>
		<circle fill="#FFFFFF" stroke="#6D6E71" stroke-miterlimit="10" cx="32.7" cy="160.7" r="2.8"/>
	</g>
</g>
</svg>
